HIERARCHY
ROOT hip
{
  OFFSET 0 0 0
  CHANNELS 6 Xposition Yposition Zposition Zrotation Yrotation Xrotation
  JOINT abdomen
  {
    OFFSET 0 20.6881 -0.73152
    CHANNELS 3 Zrotation Xrotation Yrotation
    JOINT chest
    {
      OFFSET 0 11.7043 -0.48768
      CHANNELS 3 Zrotation Xrotation Yrotation
      JOINT neck
      {
        OFFSET 0 22.1894 -2.19456
        CHANNELS 3 Zrotation Xrotation Yrotation
        JOINT head
        {
          OFFSET -0.24384 7.07133 1.2192
          CHANNELS 3 Zrotation Xrotation Yrotation
          JOINT leftEye
          {
            OFFSET 4.14528 8.04674 8.04672
            CHANNELS 3 Zrotation Xrotation Yrotation
            End Site
            {
              OFFSET 1 0 0
            }
          }
          JOINT rightEye
          {
            OFFSET -3.6576 8.04674 8.04672
            CHANNELS 3 Zrotation Xrotation Yrotation
            End Site
            {
              OFFSET 1 0 0
            }
          }
        }
      }
      JOINT rCollar
      {
        OFFSET -2.68224 19.2634 -4.8768
        CHANNELS 3 Zrotation Xrotation Yrotation
        JOINT rShldr
        {
          OFFSET -8.77824 -1.95073 1.46304
          CHANNELS 3 Zrotation Xrotation Yrotation
          JOINT rForeArm
          {
            OFFSET -28.1742 -1.7115 0.48768
            CHANNELS 3 Zrotation Xrotation Yrotation
            JOINT rHand
            {
              OFFSET -22.5879 0.773209 7.07136
              CHANNELS 3 Zrotation Xrotation Yrotation
              JOINT rThumb1
              {
                OFFSET -1.2192 -0.487915 3.41376
                CHANNELS 3 Zrotation Xrotation Yrotation
                JOINT rThumb2
                {
                  OFFSET -3.37035 -0.52449 3.41376
                  CHANNELS 3 Zrotation Xrotation Yrotation
                  End Site
                  {
                    OFFSET -1.78271 -1.18214 1.43049
                  }
                }
              }
              JOINT rIndex1
              {
                OFFSET -7.75947 0.938293 5.60832
                CHANNELS 3 Zrotation Xrotation Yrotation
                JOINT rIndex2
                {
                  OFFSET -2.54057 -0.884171 1.56538
                  CHANNELS 3 Zrotation Xrotation Yrotation
                  End Site
                  {
                    OFFSET -1.62519 -0.234802 1.16502
                  }
                }
              }
              JOINT rMid1
              {
                OFFSET -8.24714 1.18213 3.41376
                CHANNELS 3 Zrotation Xrotation Yrotation
                JOINT rMid2
                {
                  OFFSET -3.10165 -0.590103 1.0647
                  CHANNELS 3 Zrotation Xrotation Yrotation
                  End Site
                  {
                    OFFSET -2.48547 -0.328903 0.83742
                  }
                }
              }
              JOINT rRing1
              {
                OFFSET -8.82822 0.546677 1.51678
                CHANNELS 3 Zrotation Xrotation Yrotation
                JOINT rRing2
                {
                  OFFSET -2.60934 -0.819778 -0.0198488
                  CHANNELS 3 Zrotation Xrotation Yrotation
                  End Site
                  {
                    OFFSET -2.33842 -0.294052 0.168128
                  }
                }
              }
              JOINT rPinky1
              {
                OFFSET -8.27202 -0.0477905 -0.4584
                CHANNELS 3 Zrotation Xrotation Yrotation
                JOINT rPinky2
                {
                  OFFSET -1.82734 -0.647385 -0.700984
                  CHANNELS 3 Zrotation Xrotation Yrotation
                  End Site
                  {
                    OFFSET -1.69225 -0.51767 -0.607171
                  }
                }
              }
            }
          }
        }
      }
      JOINT lCollar
      {
        OFFSET 2.68224 19.2634 -4.8768
        CHANNELS 3 Zrotation Xrotation Yrotation
        JOINT lShldr
        {
          OFFSET 8.77824 -1.95073 1.46304
          CHANNELS 3 Zrotation Xrotation Yrotation
          JOINT lForeArm
          {
            OFFSET 28.1742 -1.7115 0.48768
            CHANNELS 3 Zrotation Xrotation Yrotation
            JOINT lHand
            {
              OFFSET 22.5879 0.773209 7.07136
              CHANNELS 3 Zrotation Xrotation Yrotation
              JOINT lThumb1
              {
                OFFSET 1.2192 -0.487915 3.41376
                CHANNELS 3 Zrotation Xrotation Yrotation
                JOINT lThumb2
                {
                  OFFSET 3.37035 -0.52449 3.41376
                  CHANNELS 3 Zrotation Xrotation Yrotation
                  End Site
                  {
                    OFFSET 1.78271 -1.18214 1.43049
                  }
                }
              }
              JOINT lIndex1
              {
                OFFSET 7.75947 0.938293 5.60832
                CHANNELS 3 Zrotation Xrotation Yrotation
                JOINT lIndex2
                {
                  OFFSET 2.54057 -0.884171 1.56538
                  CHANNELS 3 Zrotation Xrotation Yrotation
                  End Site
                  {
                    OFFSET 1.62519 -0.234802 1.16502
                  }
                }
              }
              JOINT lMid1
              {
                OFFSET 8.24714 1.18213 3.41376
                CHANNELS 3 Zrotation Xrotation Yrotation
                JOINT lMid2
                {
                  OFFSET 3.10165 -0.590103 1.0647
                  CHANNELS 3 Zrotation Xrotation Yrotation
                  End Site
                  {
                    OFFSET 2.48547 -0.328903 0.83742
                  }
                }
              }
              JOINT lRing1
              {
                OFFSET 8.82822 0.546677 1.51678
                CHANNELS 3 Zrotation Xrotation Yrotation
                JOINT lRing2
                {
                  OFFSET 2.60934 -0.819778 -0.0198488
                  CHANNELS 3 Zrotation Xrotation Yrotation
                  End Site
                  {
                    OFFSET 2.33842 -0.294052 0.168128
                  }
                }
              }
              JOINT lPinky1
              {
                OFFSET 8.27202 -0.0477905 -0.4584
                CHANNELS 3 Zrotation Xrotation Yrotation
                JOINT lPinky2
                {
                  OFFSET 1.82734 -0.647385 -0.700984
                  CHANNELS 3 Zrotation Xrotation Yrotation
                  End Site
                  {
                    OFFSET 1.69225 -0.51767 -0.607171
                  }
                }
              }
            }
          }
        }
      }
    }
  }
  JOINT rButtock
  {
    OFFSET -8.77824 4.35084 1.2192
    CHANNELS 3 Zrotation Xrotation Yrotation
    JOINT rThigh
    {
      OFFSET 0 -1.70687 -2.19456
      CHANNELS 3 Zrotation Xrotation Yrotation
      JOINT rShin
      {
        OFFSET 0 -36.8199 0.73152
        CHANNELS 3 Zrotation Xrotation Yrotation
        JOINT rFoot
        {
          OFFSET 0.73152 -45.1104 -5.12064
          CHANNELS 3 Zrotation Xrotation Yrotation
          End Site
          {
            OFFSET -1.1221 -3.69964 12.103
          }
        }
      }
    }
  }
  JOINT lButtock
  {
    OFFSET 8.77824 4.35084 1.2192
    CHANNELS 3 Zrotation Xrotation Yrotation
    JOINT lThigh
    {
      OFFSET 0 -1.70687 -2.19456
      CHANNELS 3 Zrotation Xrotation Yrotation
      JOINT lShin
      {
        OFFSET 0 -36.8199 0.73152
        CHANNELS 3 Zrotation Xrotation Yrotation
        JOINT lFoot
        {
          OFFSET -0.73152 -45.1104 -5.12064
          CHANNELS 3 Zrotation Xrotation Yrotation
          End Site
          {
            OFFSET 1.1221 -3.69964 12.103
          }
        }
      }
    }
  }
}
MOTION
Frames:	6
Frame Time:	0.00833333
126.7999 83.464 -10.078439 -2.9546416 -19.07718 4.489214 -1.0144306 5.582065 -12.078645 -1.4439414 0.15296243 -3.383649 -1.5320481 10.931942 -3.244509 -4.5995913 -18.384531 -8.267998 0.17221929 -0.0076965364 0.06807732 0.07590794 0.028882453 0.00027626907 -0.0618628 0.03140426 -0.007034469 64.4278 27.347086 6.496334 -29.06804 -31.837454 70.733475 0.35431665 -16.297235 -2.362113 -0.04101911 0.009974881 0.16917805 -0.052568424 0.16797028 -0.13279054 0.0032541598 -0.006665126 0.030808484 7.915049 5.458188 0.18550289 -0.030032454 -0.12242257 0.07537207 2.9773786 0.92217326 0.1830157 -0.12138555 -0.029787114 0.050135143 10.29998 0.6657216 0.061294246 0.12717573 0.09973548 0.06534029 2.4163718 -0.7276291 -0.2725524 -0.0037308722 -0.19909012 0.0033570263 -80.78916 25.337177 -13.409549 25.60612 -21.67318 -54.050766 20.33276 -73.31528 28.150267 -0.030135816 0.100457706 0.0019705286 0.147165 -0.12380255 0.0024619107 -0.0683704 0.024808764 0.052036148 -7.9293804 5.477141 -0.2968368 0.012735871 0.0028568928 0.027981412 -3.131815 0.99380314 0.03840844 0.0010929342 0.011021753 0.018161062 -10.168159 0.78431123 -0.08197816 -0.3576511 0.012603472 -0.050967894 -2.4141273 -0.7748708 0.28544995 -0.029192023 -0.17330953 0.03630401 -0.64828295 -32.86826 -1.7478069 -0.02336499 38.038757 0.09706303 -4.2202916 -11.780111 -15.116629 0.065776005 -0.019244323 0.03637433 30.282793 -36.044323 22.240953 3.2865224 63.133015 -3.7005002 0.091931015 7.7182345 13.046708
124.36285 81.85251 -14.018143 -3.2204912 -16.641281 5.603455 -0.25008935 5.8150024 -12.610989 -0.6670283 -0.45244554 -3.4043405 -1.7789465 10.37182 -2.6103778 -5.9018064 -18.986584 -7.448604 0.20994927 -0.013279061 0.10270953 0.057690695 0.023218628 -0.018790927 -0.08643745 0.049692497 -0.019736834 66.27563 31.943378 5.899423 -29.01737 -31.959871 70.77674 0.35125172 -10.718613 -1.6348531 -0.0371055 0.028111814 0.16122532 -0.029584812 0.18174444 -0.10368638 -0.019261843 -0.017489133 0.015325253 7.8779893 5.4350266 0.27687073 -0.036686614 -0.1178019 0.084843025 2.941836 0.929408 0.148912 -0.14175312 -0.08594407 0.025998818 10.316656 0.67488515 0.014906782 0.12579738 0.11068123 0.068535216 2.4123635 -0.7375865 -0.29235002 0.03206682 -0.15479001 -0.0385529 -82.17806 31.404535 -12.452269 25.812393 -22.237167 -55.026 18.600887 -72.01541 26.256985 0.010288461 0.10698433 0.005168824 0.167988 -0.15573858 -0.016431494 -0.03136631 0.029940873 0.063193485 -7.9128566 5.496064 -0.28722456 -0.013615293 -0.015345585 0.006354479 -3.1032858 0.9882851 0.04141038 -0.034274414 -0.0019459535 -0.02179545 -10.197012 0.7379059 -0.08479996 -0.36077803 0.03969492 -0.022848185 -2.3753376 -0.7712576 0.27996448 -0.0020334467 -0.22589684 0.05145534 2.0787952 -34.51592 -1.218649 0.05999327 36.226196 -0.06569241 -4.7432714 -10.936743 -17.891148 0.058910344 -0.02488987 0.036567885 29.29471 -32.152073 31.106695 4.724538 68.666214 -4.710672 0.7209162 4.2334094 10.025027
122.16358 80.928 -16.833498 -3.3861952 -13.309469 7.633734 0.27121243 4.5629725 -13.183699 0.76152843 -1.0818135 -3.542438 -2.1121905 9.623927 -1.9654922 -6.995026 -18.278461 -6.0912766 0.22802298 -0.013904299 0.089643404 0.03486372 0.023790304 -0.010964984 -0.091349065 0.061296828 -0.022978123 71.135826 35.98376 1.975447 -28.839653 -32.099987 70.78547 0.24104446 -3.496965 -0.53915685 -0.025607666 0.031841625 0.13247143 -0.018905263 0.17641753 -0.047837336 -0.049555495 -0.008341918 0.0013296742 7.8406334 5.415708 0.3473544 -0.027014527 -0.103157684 0.085179985 2.9172318 0.9323953 0.12086231 -0.13425694 -0.10859227 -0.020890594 10.349894 0.6890413 -0.021681152 0.11979487 0.1250084 0.05934569 2.3576279 -0.7850042 -0.31195757 0.052107703 -0.09247347 -0.06370596 -82.1093 37.63688 -13.730924 26.152653 -23.168251 -56.457844 15.928305 -69.733795 23.21408 0.04618302 0.08949946 0.010982567 0.17500266 -0.11267137 -0.014939771 0.01103269 0.04615484 0.043574065 -7.8636613 5.515035 -0.2984731 -0.014714573 -0.021284258 -0.028981302 -3.0621014 0.97811806 0.030952908 -0.0545413 -0.013862906 -0.06503233 -10.225757 0.709097 -0.059863444 -0.30659708 0.07689808 0.008087154 -2.3324304 -0.74665725 0.26175475 0.024521858 -0.22601743 0.063793145 5.4376698 -36.325592 -0.8457443 0.06198676 34.69567 -0.11162985 -5.0367036 -11.452223 -18.216894 0.03984275 -0.02144121 0.026068687 22.803953 -27.014257 31.557268 3.5193505 61.377792 -3.2126126 1.7966404 -1.4499296 9.444432
120.00246 80.50219 -18.557707 -3.7896473 -8.916032 10.079858 0.4753964 3.083369 -13.665748 1.8817501 -1.8615745 -3.702037 -2.0453222 8.610144 -1.3874217 -7.3169184 -16.808992 -4.6331377 0.21967812 -0.0069354656 0.060826145 0.023482205 0.028203778 0.001935659 -0.0897831 0.051488142 -0.013338053 77.42409 39.777878 -3.2626526 -28.549551 -31.593483 69.60354 0.07511923 3.9561632 0.6715549 0.0037803524 0.040506076 0.09542281 -0.026293956 0.16838145 0.0054591545 -0.06369532 0.0039525386 -0.020488486 7.7833953 5.4126525 0.41081938 -0.020074407 -0.077366814 0.0780899 2.9039705 0.91988236 0.11889523 -0.10960679 -0.10908854 -0.056829806 10.386149 0.7131082 -0.033263672 0.105033115 0.13498011 0.034147628 2.2965755 -0.8322716 -0.31357482 0.065514386 -0.03358897 -0.06386995 -78.14407 41.447865 -19.49193 26.31485 -23.624895 -56.917915 14.163731 -67.72721 21.119858 0.07356651 0.044931497 0.027428193 0.16736858 -0.0391334 -0.0035343429 0.03985053 0.057755023 0.016706962 -7.816773 5.5172777 -0.31930497 0.013321522 -0.009331462 -0.05968327 -3.029023 0.9560208 0.0063563883 -0.044733483 -0.036077093 -0.09469632 -10.262247 0.6908487 -0.020471253 -0.22894129 0.08640959 0.04361536 -2.309855 -0.7043279 0.23961668 0.031794794 -0.19044393 0.07412285 6.535879 -39.58527 -2.9405155 -0.004042279 34.4318 -0.017527191 -5.2484617 -12.640785 -16.999271 0.01689229 -0.0116710905 0.010918844 15.129041 -21.389673 26.434513 1.9808052 45.960823 -1.7562925 3.569813 -9.229786 11.788381
117.84875 80.25867 -19.208769 -3.0907521 -2.5412874 11.986908 -0.255244 2.7143543 -13.564042 2.379725 -2.6454499 -3.6803815 -1.654572 7.7667193 -0.9683575 -6.8998613 -15.039949 -3.3835015 0.17844614 0.0034829276 0.033692744 0.0158004 0.03647911 0.012554924 -0.084524535 0.030161463 0.0013682084 83.389915 42.869156 -8.245508 -28.022062 -29.392532 65.63547 -0.2078499 12.273249 2.0851865 0.043858886 0.061893318 0.06482369 -0.040815353 0.16463289 0.036893412 -0.057466008 0.0015337813 -0.035892393 7.708637 5.4312267 0.46079868 -0.017955918 -0.05193737 0.07019491 2.8975215 0.9060245 0.14099902 -0.07738812 -0.09438305 -0.062393453 10.408628 0.73278254 -0.024935646 0.08195233 0.13762735 0.009189983 2.2551055 -0.8564359 -0.29431918 0.06537372 -0.00059950195 -0.04133142 -70.27275 40.727512 -29.739697 25.7961 -22.414936 -54.724762 12.563706 -65.59084 19.187695 0.094379194 -0.0080897445 0.04941532 0.14177936 0.017086722 0.01050864 0.042830773 0.057347953 -0.0010609422 -7.787454 5.4946384 -0.33887777 0.05365647 0.003942867 -0.072447024 -3.020594 0.92970014 -0.00980748 -0.013312502 -0.06574903 -0.10287539 -10.309688 0.69436866 0.0041852538 -0.15083864 0.06435899 0.07660261 -2.3059897 -0.67315745 0.21733756 0.01728747 -0.13852859 0.06838093 2.9365697 -44.78476 -7.603134 -0.13288577 36.896545 0.18920806 -5.7125425 -13.056423 -16.541315 -0.0024537952 -0.0013566907 0.0037687642 9.56374 -17.806528 21.101921 1.1688509 35.46872 -1.3067899 5.4633155 -15.551899 14.58806
115.46199 80.13905 -18.953518 -1.15695 5.9135346 12.509811 -1.451317 2.9121926 -12.882843 2.1920536 -3.0754423 -3.4175549 -1.3065114 7.349995 -0.8728494 -6.005829 -13.446744 -2.4989133 0.12715323 0.017166521 0.0067769294 0.009210778 0.04576444 0.01795644 -0.07376061 0.020843765 0.013362915 87.79678 43.79789 -13.80653 -26.974121 -25.657084 59.35434 -0.8286829 22.65079 3.8711982 0.07969744 0.0821727 0.045874 -0.051586576 0.15674342 0.04689471 -0.03547504 -0.008905864 -0.030476183 7.6434903 5.4579487 0.48311415 -0.019643847 -0.03726408 0.059591644 2.8920782 0.9030819 0.1764473 -0.04735488 -0.06980114 -0.042265348 10.414203 0.7281955 -0.00759304 0.058229916 0.13179544 -0.002261821 2.2409883 -0.8608721 -0.26562244 0.047293622 -0.0076244734 -0.008040203 -62.394684 34.537144 -40.377888 24.357653 -19.558393 -50.017086 10.920525 -63.00055 17.198996 0.096279085 -0.043934457 0.07306522 0.102186605 0.041833337 0.023322882 0.023695445 0.042767394 -0.0045094164 -7.770778 5.458263 -0.3493975 0.08860101 0.008470047 -0.058407653 -3.0340488 0.90751386 -0.019131195 0.020915007 -0.088304706 -0.08791318 -10.352263 0.72164017 0.006569112 -0.08069738 0.031311117 0.09235258 -2.3017578 -0.67661995 0.19450162 -0.005899605 -0.08672052 0.04170997 -4.8222265 -48.451786 -10.10424 -0.37052235 41.383076 0.4599422 -6.3130474 -11.68903 -18.952824 -0.018596776 0.004927665 0.011182302 7.485799 -17.79562 18.9025 0.78141546 33.92836 -1.2554182 6.483102 -19.236586 15.361033
